<?xml version="1.0" encoding="utf-8"?>
<!-- Generator: Adobe Illustrator 25.2.3, SVG Export Plug-In . SVG Version: 6.00 Build 0)  -->
<svg version="1.1" id="Layer_1" xmlns="http://www.w3.org/2000/svg" xmlns:xlink="http://www.w3.org/1999/xlink" x="0px" y="0px"
	 viewBox="0 0 500 500" style="enable-background:new 0 0 500 500;" xml:space="preserve">
<style type="text/css">
	.st0{fill:#808080;}
	.st1{fill-rule:evenodd;clip-rule:evenodd;fill:url(#SVGID_1_);}
</style>
<path class="st0" d="M1063.44,281.62l-0.06-0.55h-0.03c-0.24,0.34-0.71,0.65-1.33,0.65c-0.88,0-1.33-0.62-1.33-1.25
	c0-1.05,0.94-1.63,2.62-1.62v-0.09c0-0.36-0.1-1.01-0.99-1.01c-0.41,0-0.83,0.13-1.13,0.32l-0.18-0.52
	c0.36-0.23,0.88-0.39,1.43-0.39c1.33,0,1.66,0.91,1.66,1.78v1.63c0,0.38,0.02,0.75,0.07,1.04H1063.44z M1063.32,279.39
	c-0.86-0.02-1.85,0.14-1.85,0.98c0,0.51,0.34,0.76,0.75,0.76c0.57,0,0.93-0.36,1.05-0.73c0.03-0.08,0.05-0.17,0.05-0.25V279.39z"/>
<path class="st0" d="M1061.01,286.81v1.25h1.14v0.6h-1.14v2.35c0,0.54,0.15,0.85,0.59,0.85c0.21,0,0.36-0.03,0.46-0.05l0.04,0.6
	c-0.15,0.06-0.4,0.11-0.7,0.11c-0.37,0-0.67-0.12-0.86-0.33c-0.22-0.23-0.31-0.62-0.31-1.13v-2.38h-0.68v-0.6h0.68v-1.04
	L1061.01,286.81z"/>
<path class="st0" d="M1062.82,291.95c0-0.33,0.23-0.57,0.54-0.57c0.31,0,0.53,0.23,0.53,0.57c0,0.32-0.21,0.57-0.54,0.57
	C1063.03,292.52,1062.82,292.27,1062.82,291.95"/>
<linearGradient id="SVGID_1_" gradientUnits="userSpaceOnUse" x1="91.0814" y1="1.8432" x2="554.7464" y2="483.7635">
	<stop  offset="0" style="stop-color:#FFAB67"/>
	<stop  offset="0.0554" style="stop-color:#FF9F6C"/>
	<stop  offset="0.3301" style="stop-color:#FF6784"/>
	<stop  offset="0.4627" style="stop-color:#FF518D"/>
	<stop  offset="1" style="stop-color:#5E309D"/>
</linearGradient>
<path class="st1" d="M338.7,129.52c26.22,0,50.55,8.04,70.68,21.78c5.8,3.96,8.24,10.94,6.17,17.65c-2.07,6.71-8.02,11.1-15.04,11.1
	h-19.45v22.03h71.48h55.87v-22.03h-8.52c-21.65-46.45-62.79-81.99-112.9-96.1c0.72,0.2,1.43,0.41,2.14,0.62V24h-31.1v54.35
	c1.24,0.13,2.47,0.28,3.7,0.44c-7.53-0.97-15.22-1.48-23.01-1.48c-10.73,0-21.24,0.95-31.45,2.78c1.37-0.24,2.74-0.47,4.11-0.69V24
	h-31.1v63.15c0.47-0.16,0.94-0.32,1.41-0.48c-70.18,23.76-120.69,90.17-120.69,168.37s50.51,144.61,120.69,168.37
	c-0.47-0.16-0.94-0.32-1.41-0.48v63.15h31.1v-55.41c-1.38-0.21-2.75-0.44-4.11-0.69c10.21,1.82,20.72,2.78,31.45,2.78
	c7.8,0,15.48-0.5,23.01-1.48c-1.23,0.16-2.46,0.31-3.7,0.44v54.35h31.1v-60.57c-0.71,0.21-1.43,0.42-2.15,0.62
	c50.12-14.11,91.26-49.65,112.91-96.1h8.52V308h-55.87h-71.48v22.03h19.45c7.02,0,12.97,4.39,15.04,11.1
	c2.07,6.71-0.37,13.69-6.17,17.65c-20.13,13.74-44.47,21.78-70.68,21.78c-69.32,0-125.52-56.2-125.52-125.52
	C213.18,185.72,269.38,129.52,338.7,129.52L338.7,129.52z M361.76,431.28c3.22-0.42,6.42-0.92,9.58-1.51
	C368.17,430.36,364.98,430.86,361.76,431.28L361.76,431.28z M371.34,429.77c1.05-0.2,2.1-0.4,3.15-0.61
	C373.44,429.37,372.39,429.58,371.34,429.77L371.34,429.77z M374.53,429.15c1.04-0.21,2.08-0.44,3.12-0.67
	C376.61,428.72,375.57,428.94,374.53,429.15L374.53,429.15z M377.65,428.48c1.04-0.23,2.07-0.47,3.1-0.72
	C379.72,428.01,378.69,428.25,377.65,428.48L377.65,428.48z M380.79,427.75c2.06-0.5,4.11-1.04,6.15-1.61
	C384.91,426.71,382.86,427.25,380.79,427.75L380.79,427.75z M281.72,423.43c1.37,0.46,2.74,0.91,4.13,1.34
	C284.46,424.34,283.09,423.89,281.72,423.43L281.72,423.43z M285.85,424.77c1.39,0.43,2.78,0.85,4.18,1.24
	C288.63,425.62,287.24,425.21,285.85,424.77L285.85,424.77z M290.06,426.03c1.39,0.4,2.79,0.77,4.2,1.14
	C292.85,426.8,291.45,426.42,290.06,426.03L290.06,426.03z M294.31,427.18c1.4,0.36,2.82,0.71,4.24,1.03
	C297.13,427.88,295.72,427.54,294.31,427.18L294.31,427.18z M298.58,428.22c1.42,0.33,2.86,0.64,4.29,0.93
	C301.44,428.86,300.01,428.55,298.58,428.22L298.58,428.22z M302.89,429.16c1.44,0.29,2.88,0.57,4.34,0.83
	C305.78,429.73,304.33,429.45,302.89,429.16L302.89,429.16z M307.23,80.09c-1.45,0.26-2.9,0.54-4.34,0.83
	C304.33,80.63,305.78,80.35,307.23,80.09L307.23,80.09z M302.88,80.93c-1.44,0.29-2.87,0.61-4.29,0.93
	C300.01,81.54,301.44,81.22,302.88,80.93L302.88,80.93z M298.55,81.87c-1.42,0.33-2.83,0.67-4.24,1.03
	C295.72,82.54,297.13,82.2,298.55,81.87L298.55,81.87z M294.26,82.92c-1.41,0.36-2.81,0.74-4.2,1.14
	C291.45,83.66,292.85,83.28,294.26,82.92L294.26,82.92z M290.03,84.06c-1.4,0.4-2.79,0.81-4.18,1.24
	C287.24,84.88,288.63,84.46,290.03,84.06L290.03,84.06z M285.85,85.31c-1.38,0.43-2.76,0.88-4.13,1.34
	C283.09,86.19,284.46,85.74,285.85,85.31L285.85,85.31z M386.93,83.94c-2.03-0.57-4.08-1.11-6.14-1.61
	C382.85,82.83,384.9,83.37,386.93,83.94L386.93,83.94z M380.75,82.32c-1.03-0.25-2.06-0.49-3.1-0.72
	C378.69,81.83,379.73,82.07,380.75,82.32L380.75,82.32z M377.64,81.6c-1.03-0.23-2.08-0.45-3.12-0.67
	C375.57,81.14,376.61,81.37,377.64,81.6L377.64,81.6z M374.49,80.92c-1.03-0.21-2.08-0.41-3.12-0.61
	C372.41,80.51,373.45,80.71,374.49,80.92L374.49,80.92z M371.34,80.31c-1.06-0.2-2.11-0.38-3.17-0.56
	C369.22,79.93,370.28,80.11,371.34,80.31L371.34,80.31z M368.15,79.75c-2.12-0.35-4.25-0.67-6.4-0.95
	C363.9,79.08,366.03,79.39,368.15,79.75L368.15,79.75z"/>
</svg>
